<svg width="30" height="30" viewBox="0 0 30 30" fill="none" xmlns="http://www.w3.org/2000/svg">
<path d="M15.1429 19.2986V20.2181L16.0591 20.2951C18.7129 20.5181 21.0048 21.2985 22.6033 22.3751C23.786 23.1716 24.5244 24.0784 24.8331 25H4.16859C4.47814 24.0836 5.21585 23.178 6.39732 22.3809C7.99634 21.3021 10.2883 20.518 12.9409 20.2951L13.8571 20.2181V19.2986V17.9043V17.328L13.3585 17.0391C11.9012 16.1947 10.5714 13.9276 10.5714 11.6162C10.5714 10.5546 10.5721 9.5975 10.6449 8.73647C10.7178 7.87416 10.8584 7.18093 11.1005 6.63931C11.3325 6.12008 11.6572 5.73938 12.1368 5.47263C12.6349 5.19557 13.3757 5 14.5 5C15.6243 5 16.3651 5.19557 16.8632 5.47263C17.3428 5.73938 17.6675 6.12008 17.8995 6.63931C18.1416 7.18093 18.2822 7.87416 18.3551 8.73647C18.4279 9.5975 18.4286 10.5546 18.4286 11.6162C18.4286 13.9261 17.0998 16.1897 15.6395 17.0402L15.1429 17.3295V17.9043V19.2986Z" stroke="black" stroke-width="2"/>
</svg>