
<svg width="30" height="30" viewBox="0 0 30 30" fill="none" xmlns="http://www.w3.org/2000/svg">
<path d="M26 26L22.985 23L21.4775 21.5L19.97 20M22.58 13.29C22.58 15.1274 22.0352 16.9235 21.0144 18.4512C19.9936 19.979 18.5427 21.1697 16.8451 21.8728C15.1476 22.576 13.2797 22.76 11.4776 22.4015C9.67553 22.043 8.02021 21.1583 6.72098 19.859C5.42175 18.5598 4.53697 16.9045 4.17851 15.1024C3.82005 13.3003 4.00402 11.4324 4.70716 9.73487C5.4103 8.03735 6.60102 6.58645 8.12876 5.56565C9.65649 4.54485 11.4526 4 13.29 4C14.51 4 15.718 4.24029 16.8451 4.70716C17.9722 5.17403 18.9964 5.85832 19.859 6.72098C20.7217 7.58363 21.406 8.60776 21.8728 9.73487C22.3397 10.862 22.58 12.07 22.58 13.29Z" stroke="black" stroke-width="2"/>
</svg>
